<?xml version="1.0" encoding="UTF-8"?>
<svg id="Layer_1" xmlns="http://www.w3.org/2000/svg" version="1.1" xmlns:xlink="http://www.w3.org/1999/xlink" viewBox="0 0 253 240.7">
  <!-- Generator: Adobe Illustrator 29.2.1, SVG Export Plug-In . SVG Version: 2.1.0 Build 116)  -->
  <defs>
    <style>
      .st0 {
        stroke: url(#linear-gradient);
      }

      .st0, .st1 {
        fill: none;
        stroke-miterlimit: 10;
        stroke-width: 10px;
      }

      .st1 {
        stroke: #8c38cc;
      }
    </style>
    <linearGradient id="linear-gradient" x1="13.6" y1="214.9" x2="234.6" y2="214.9" gradientTransform="translate(0 -98)" gradientUnits="userSpaceOnUse">
      <stop offset="0" stop-color="#fff"/>
      <stop offset="1" stop-color="#8c38cc"/>
    </linearGradient>
  </defs>
  <path class="st0" d="M160.5,212.1v-69.5h-44.8v-32.7h113.9v32.6h-29.5v11.3M163,208.5c-14.8,5.4-30.8,8.7-45.9,8.7s-38-4.2-53.1-12.8c-15.1-8.5-26.4-20.7-34-36.5s-11.4-33.1-11.4-51.7,4.2-38.1,12.7-53.8,20.9-27.7,37.2-36.1c12.4-6.4,27.9-9.7,46.4-9.7s42.9,5,56.4,15.1,22.2,24,26.1,41.9l-38.9,7.3c-2.7-9.5-7.9-17-15.4-22.5s-16.9-8.3-28.2-8.3c-17.1,0-30.7,5.4-40.8,16.3-10.1,10.8-15.2,26.9-15.2,48.3s5.1,40.3,15.3,51.8,23.6,17.3,40.2,17.3,16.4-1.6,24.7-4.8"/>
  <line class="st1" x1="200" y1="159.4" x2="200" y2="168.4"/>
  <line class="st1" x1="200" y1="174.4" x2="200" y2="183.5"/>
  <line class="st1" x1="200" y1="189.5" x2="200" y2="198.6"/>
  <line class="st1" x1="200" y1="204.6" x2="200" y2="213.6"/>
  <line class="st1" x1="200" y1="219.7" x2="200" y2="228.7"/>
  <line class="st1" x1="186.6" y1="210.6" x2="186.6" y2="219.7"/>
  <line class="st1" x1="186.6" y1="195.6" x2="186.6" y2="204.6"/>
  <line class="st1" x1="186.6" y1="180.5" x2="186.6" y2="189.5"/>
  <line class="st1" x1="186.6" y1="165.4" x2="186.6" y2="174.4"/>
  <line class="st1" x1="174" y1="171.4" x2="174" y2="180.5"/>
  <line class="st1" x1="174" y1="187.5" x2="174" y2="196.5"/>
  <line class="st1" x1="174" y1="203.1" x2="174" y2="212.1"/>
</svg>